<mxfile host="app.diagrams.net" agent="Mozilla/5.0 (Windows NT 10.0; Win64; x64) AppleWebKit/537.36 (KHTML, like Gecko) Chrome/141.0.0.0 Safari/537.36" version="28.2.8">
  <diagram name="Page-1" id="uycK8a8_iifxY78TXrul">
    <mxGraphModel dx="1840" dy="2476" grid="1" gridSize="10" guides="1" tooltips="1" connect="1" arrows="1" fold="1" page="1" pageScale="1" pageWidth="583" pageHeight="827" math="0" shadow="0">
      <root>
        <mxCell id="0" />
        <mxCell id="1" parent="0" />
        <mxCell id="ccUTw-ROl653swisLFIC-149" value="" style="edgeStyle=orthogonalEdgeStyle;rounded=0;orthogonalLoop=1;jettySize=auto;html=1;" edge="1" parent="1" source="ccUTw-ROl653swisLFIC-1" target="ccUTw-ROl653swisLFIC-144">
          <mxGeometry relative="1" as="geometry" />
        </mxCell>
        <mxCell id="ccUTw-ROl653swisLFIC-1" value="Remove" style="rounded=0;whiteSpace=wrap;html=1;" vertex="1" parent="1">
          <mxGeometry x="762.5" y="-560" width="96" height="60" as="geometry" />
        </mxCell>
        <mxCell id="ccUTw-ROl653swisLFIC-49" value="" style="edgeStyle=orthogonalEdgeStyle;rounded=0;orthogonalLoop=1;jettySize=auto;html=1;" edge="1" parent="1" source="ccUTw-ROl653swisLFIC-2" target="ccUTw-ROl653swisLFIC-48">
          <mxGeometry relative="1" as="geometry" />
        </mxCell>
        <mxCell id="ccUTw-ROl653swisLFIC-2" value="Add" style="rounded=0;whiteSpace=wrap;html=1;" vertex="1" parent="1">
          <mxGeometry x="370" y="-560" width="100" height="60" as="geometry" />
        </mxCell>
        <mxCell id="ccUTw-ROl653swisLFIC-3" value="Export" style="rounded=0;whiteSpace=wrap;html=1;" vertex="1" parent="1">
          <mxGeometry x="950" y="-560" width="90" height="60" as="geometry" />
        </mxCell>
        <mxCell id="ccUTw-ROl653swisLFIC-20" value="" style="edgeStyle=orthogonalEdgeStyle;rounded=0;orthogonalLoop=1;jettySize=auto;html=1;" edge="1" parent="1" source="ccUTw-ROl653swisLFIC-4">
          <mxGeometry relative="1" as="geometry">
            <mxPoint x="230" y="-460" as="targetPoint" />
          </mxGeometry>
        </mxCell>
        <mxCell id="ccUTw-ROl653swisLFIC-4" value="Display" style="rounded=0;whiteSpace=wrap;html=1;" vertex="1" parent="1">
          <mxGeometry x="180" y="-560" width="100" height="60" as="geometry" />
        </mxCell>
        <mxCell id="ccUTw-ROl653swisLFIC-75" value="" style="edgeStyle=orthogonalEdgeStyle;rounded=0;orthogonalLoop=1;jettySize=auto;html=1;" edge="1" parent="1" source="ccUTw-ROl653swisLFIC-5" target="ccUTw-ROl653swisLFIC-73">
          <mxGeometry relative="1" as="geometry" />
        </mxCell>
        <mxCell id="ccUTw-ROl653swisLFIC-5" value="Edit" style="rounded=0;whiteSpace=wrap;html=1;" vertex="1" parent="1">
          <mxGeometry x="550" y="-560" width="100" height="60" as="geometry" />
        </mxCell>
        <mxCell id="ccUTw-ROl653swisLFIC-8" value="&lt;font style=&quot;font-size: 18px;&quot;&gt;&lt;b&gt;Start&lt;/b&gt;&lt;/font&gt;" style="ellipse;whiteSpace=wrap;html=1;" vertex="1" parent="1">
          <mxGeometry x="540" y="-790" width="120" height="80" as="geometry" />
        </mxCell>
        <mxCell id="ccUTw-ROl653swisLFIC-13" value="" style="edgeStyle=orthogonalEdgeStyle;rounded=0;orthogonalLoop=1;jettySize=auto;html=1;" edge="1" parent="1" source="ccUTw-ROl653swisLFIC-8" target="ccUTw-ROl653swisLFIC-9">
          <mxGeometry relative="1" as="geometry">
            <mxPoint x="600" y="-710" as="sourcePoint" />
            <mxPoint x="600" y="-630" as="targetPoint" />
          </mxGeometry>
        </mxCell>
        <mxCell id="ccUTw-ROl653swisLFIC-26" style="edgeStyle=orthogonalEdgeStyle;rounded=0;orthogonalLoop=1;jettySize=auto;html=1;" edge="1" parent="1" source="ccUTw-ROl653swisLFIC-9" target="ccUTw-ROl653swisLFIC-5">
          <mxGeometry relative="1" as="geometry" />
        </mxCell>
        <mxCell id="ccUTw-ROl653swisLFIC-27" style="edgeStyle=orthogonalEdgeStyle;rounded=0;orthogonalLoop=1;jettySize=auto;html=1;" edge="1" parent="1" source="ccUTw-ROl653swisLFIC-9" target="ccUTw-ROl653swisLFIC-1">
          <mxGeometry relative="1" as="geometry">
            <Array as="points">
              <mxPoint x="600" y="-580" />
              <mxPoint x="811" y="-580" />
            </Array>
          </mxGeometry>
        </mxCell>
        <mxCell id="ccUTw-ROl653swisLFIC-45" style="edgeStyle=orthogonalEdgeStyle;rounded=0;orthogonalLoop=1;jettySize=auto;html=1;" edge="1" parent="1" source="ccUTw-ROl653swisLFIC-9" target="ccUTw-ROl653swisLFIC-2">
          <mxGeometry relative="1" as="geometry">
            <Array as="points">
              <mxPoint x="600" y="-580" />
              <mxPoint x="420" y="-580" />
            </Array>
          </mxGeometry>
        </mxCell>
        <mxCell id="ccUTw-ROl653swisLFIC-171" style="edgeStyle=orthogonalEdgeStyle;rounded=0;orthogonalLoop=1;jettySize=auto;html=1;" edge="1" parent="1" source="ccUTw-ROl653swisLFIC-9" target="ccUTw-ROl653swisLFIC-3">
          <mxGeometry relative="1" as="geometry">
            <Array as="points">
              <mxPoint x="600" y="-580" />
              <mxPoint x="995" y="-580" />
            </Array>
          </mxGeometry>
        </mxCell>
        <mxCell id="ccUTw-ROl653swisLFIC-172" style="edgeStyle=orthogonalEdgeStyle;rounded=0;orthogonalLoop=1;jettySize=auto;html=1;entryX=0.5;entryY=0;entryDx=0;entryDy=0;" edge="1" parent="1" source="ccUTw-ROl653swisLFIC-9" target="ccUTw-ROl653swisLFIC-14">
          <mxGeometry relative="1" as="geometry">
            <Array as="points">
              <mxPoint x="600" y="-580" />
              <mxPoint x="1115" y="-580" />
            </Array>
          </mxGeometry>
        </mxCell>
        <mxCell id="ccUTw-ROl653swisLFIC-9" value="&lt;font style=&quot;font-size: 15px;&quot;&gt;Prompt for&amp;nbsp;&lt;/font&gt;&lt;div&gt;&lt;font style=&quot;font-size: 15px;&quot;&gt;Options&lt;/font&gt;&lt;/div&gt;" style="shape=parallelogram;perimeter=parallelogramPerimeter;whiteSpace=wrap;html=1;fixedSize=1;" vertex="1" parent="1">
          <mxGeometry x="535" y="-670" width="130" height="60" as="geometry" />
        </mxCell>
        <mxCell id="ccUTw-ROl653swisLFIC-187" value="" style="edgeStyle=orthogonalEdgeStyle;rounded=0;orthogonalLoop=1;jettySize=auto;html=1;" edge="1" parent="1" source="ccUTw-ROl653swisLFIC-14" target="ccUTw-ROl653swisLFIC-183">
          <mxGeometry relative="1" as="geometry" />
        </mxCell>
        <mxCell id="ccUTw-ROl653swisLFIC-14" value="Quit" style="rounded=0;whiteSpace=wrap;html=1;" vertex="1" parent="1">
          <mxGeometry x="1070" y="-560" width="90" height="60" as="geometry" />
        </mxCell>
        <mxCell id="ccUTw-ROl653swisLFIC-30" value="" style="edgeStyle=orthogonalEdgeStyle;rounded=0;orthogonalLoop=1;jettySize=auto;html=1;" edge="1" parent="1" target="ccUTw-ROl653swisLFIC-29">
          <mxGeometry relative="1" as="geometry">
            <mxPoint x="230.04761904761904" y="-400" as="sourcePoint" />
          </mxGeometry>
        </mxCell>
        <mxCell id="ccUTw-ROl653swisLFIC-38" value="" style="edgeStyle=orthogonalEdgeStyle;rounded=0;orthogonalLoop=1;jettySize=auto;html=1;" edge="1" parent="1" source="ccUTw-ROl653swisLFIC-17" target="ccUTw-ROl653swisLFIC-37">
          <mxGeometry relative="1" as="geometry" />
        </mxCell>
        <mxCell id="ccUTw-ROl653swisLFIC-17" value="Dao Load&amp;nbsp;&lt;div&gt;order File&lt;/div&gt;" style="rounded=0;whiteSpace=wrap;html=1;" vertex="1" parent="1">
          <mxGeometry x="180" y="-280" width="100" height="60" as="geometry" />
        </mxCell>
        <mxCell id="ccUTw-ROl653swisLFIC-25" style="edgeStyle=orthogonalEdgeStyle;rounded=0;orthogonalLoop=1;jettySize=auto;html=1;" edge="1" parent="1" source="ccUTw-ROl653swisLFIC-18" target="ccUTw-ROl653swisLFIC-9">
          <mxGeometry relative="1" as="geometry">
            <Array as="points">
              <mxPoint x="180" y="40" />
              <mxPoint x="80" y="40" />
              <mxPoint x="80" y="-640" />
            </Array>
          </mxGeometry>
        </mxCell>
        <mxCell id="ccUTw-ROl653swisLFIC-18" value="Display Order&lt;div&gt;Information&lt;/div&gt;" style="rounded=0;whiteSpace=wrap;html=1;" vertex="1" parent="1">
          <mxGeometry x="110" y="-90" width="100" height="60" as="geometry" />
        </mxCell>
        <mxCell id="ccUTw-ROl653swisLFIC-31" value="" style="edgeStyle=orthogonalEdgeStyle;rounded=0;orthogonalLoop=1;jettySize=auto;html=1;" edge="1" parent="1" source="ccUTw-ROl653swisLFIC-29" target="ccUTw-ROl653swisLFIC-17">
          <mxGeometry relative="1" as="geometry" />
        </mxCell>
        <mxCell id="ccUTw-ROl653swisLFIC-29" value="Valid Date?" style="rhombus;whiteSpace=wrap;html=1;" vertex="1" parent="1">
          <mxGeometry x="170" y="-380" width="120" height="70" as="geometry" />
        </mxCell>
        <mxCell id="ccUTw-ROl653swisLFIC-87" style="edgeStyle=orthogonalEdgeStyle;rounded=0;orthogonalLoop=1;jettySize=auto;html=1;exitX=0;exitY=0.5;exitDx=0;exitDy=0;" edge="1" parent="1" source="ccUTw-ROl653swisLFIC-29" target="ccUTw-ROl653swisLFIC-74">
          <mxGeometry relative="1" as="geometry">
            <mxPoint x="130" y="-460" as="targetPoint" />
            <mxPoint x="130" y="-360" as="sourcePoint" />
            <Array as="points">
              <mxPoint x="110" y="-345" />
              <mxPoint x="110" y="-430" />
            </Array>
          </mxGeometry>
        </mxCell>
        <mxCell id="ccUTw-ROl653swisLFIC-34" value="Yes&lt;div&gt;&lt;br&gt;&lt;/div&gt;" style="text;html=1;whiteSpace=wrap;strokeColor=none;fillColor=none;align=center;verticalAlign=middle;rounded=0;" vertex="1" parent="1">
          <mxGeometry x="220" y="-310" width="60" height="30" as="geometry" />
        </mxCell>
        <mxCell id="ccUTw-ROl653swisLFIC-39" value="" style="edgeStyle=orthogonalEdgeStyle;rounded=0;orthogonalLoop=1;jettySize=auto;html=1;" edge="1" parent="1" target="ccUTw-ROl653swisLFIC-18">
          <mxGeometry relative="1" as="geometry">
            <mxPoint x="210" y="-130" as="sourcePoint" />
            <Array as="points">
              <mxPoint x="230" y="-130" />
              <mxPoint x="230" y="-109" />
              <mxPoint x="190" y="-109" />
              <mxPoint x="160" y="-110" />
            </Array>
          </mxGeometry>
        </mxCell>
        <mxCell id="ccUTw-ROl653swisLFIC-40" style="edgeStyle=orthogonalEdgeStyle;rounded=0;orthogonalLoop=1;jettySize=auto;html=1;" edge="1" parent="1" target="ccUTw-ROl653swisLFIC-41">
          <mxGeometry relative="1" as="geometry">
            <mxPoint x="270" y="-90" as="targetPoint" />
            <mxPoint x="230" y="-110" as="sourcePoint" />
            <Array as="points">
              <mxPoint x="275" y="-110" />
            </Array>
          </mxGeometry>
        </mxCell>
        <mxCell id="ccUTw-ROl653swisLFIC-37" value="Order Exists?" style="rhombus;whiteSpace=wrap;html=1;" vertex="1" parent="1">
          <mxGeometry x="170" y="-200" width="120" height="70" as="geometry" />
        </mxCell>
        <mxCell id="ccUTw-ROl653swisLFIC-41" value="Display Error Message" style="rounded=0;whiteSpace=wrap;html=1;" vertex="1" parent="1">
          <mxGeometry x="220" y="-90" width="110" height="60" as="geometry" />
        </mxCell>
        <mxCell id="ccUTw-ROl653swisLFIC-42" value="Yes&lt;div&gt;&lt;br&gt;&lt;/div&gt;" style="text;html=1;whiteSpace=wrap;strokeColor=none;fillColor=none;align=center;verticalAlign=middle;rounded=0;" vertex="1" parent="1">
          <mxGeometry x="150" y="-130" width="60" height="30" as="geometry" />
        </mxCell>
        <mxCell id="ccUTw-ROl653swisLFIC-43" value="No" style="text;html=1;whiteSpace=wrap;strokeColor=none;fillColor=none;align=center;verticalAlign=middle;rounded=0;" vertex="1" parent="1">
          <mxGeometry x="240" y="-130" width="60" height="30" as="geometry" />
        </mxCell>
        <mxCell id="ccUTw-ROl653swisLFIC-44" value="" style="endArrow=none;html=1;rounded=0;entryX=0.5;entryY=1;entryDx=0;entryDy=0;" edge="1" parent="1" target="ccUTw-ROl653swisLFIC-41">
          <mxGeometry width="50" height="50" relative="1" as="geometry">
            <mxPoint x="160" y="40" as="sourcePoint" />
            <mxPoint x="140" y="-170" as="targetPoint" />
            <Array as="points">
              <mxPoint x="220" y="40" />
              <mxPoint x="275" y="40" />
            </Array>
          </mxGeometry>
        </mxCell>
        <mxCell id="ccUTw-ROl653swisLFIC-46" value="" style="endArrow=classic;html=1;rounded=0;entryX=0.5;entryY=0;entryDx=0;entryDy=0;" edge="1" parent="1" target="ccUTw-ROl653swisLFIC-4">
          <mxGeometry width="50" height="50" relative="1" as="geometry">
            <mxPoint x="420" y="-580" as="sourcePoint" />
            <mxPoint x="410" y="-500" as="targetPoint" />
            <Array as="points">
              <mxPoint x="230" y="-580" />
            </Array>
          </mxGeometry>
        </mxCell>
        <mxCell id="ccUTw-ROl653swisLFIC-51" value="" style="edgeStyle=orthogonalEdgeStyle;rounded=0;orthogonalLoop=1;jettySize=auto;html=1;" edge="1" parent="1" source="ccUTw-ROl653swisLFIC-48" target="ccUTw-ROl653swisLFIC-50">
          <mxGeometry relative="1" as="geometry" />
        </mxCell>
        <mxCell id="ccUTw-ROl653swisLFIC-48" value="Prompt For Order&lt;div&gt;Information&lt;/div&gt;" style="shape=parallelogram;perimeter=parallelogramPerimeter;whiteSpace=wrap;html=1;fixedSize=1;" vertex="1" parent="1">
          <mxGeometry x="355" y="-450" width="130" height="50" as="geometry" />
        </mxCell>
        <mxCell id="ccUTw-ROl653swisLFIC-56" value="" style="edgeStyle=orthogonalEdgeStyle;rounded=0;orthogonalLoop=1;jettySize=auto;html=1;" edge="1" parent="1" source="ccUTw-ROl653swisLFIC-50" target="ccUTw-ROl653swisLFIC-55">
          <mxGeometry relative="1" as="geometry" />
        </mxCell>
        <mxCell id="ccUTw-ROl653swisLFIC-50" value="Valid Inputs?" style="rhombus;whiteSpace=wrap;html=1;" vertex="1" parent="1">
          <mxGeometry x="360" y="-360" width="120" height="65" as="geometry" />
        </mxCell>
        <mxCell id="ccUTw-ROl653swisLFIC-53" value="" style="endArrow=classic;html=1;rounded=0;entryX=1;entryY=0.5;entryDx=0;entryDy=0;exitX=1;exitY=0.5;exitDx=0;exitDy=0;" edge="1" parent="1" source="ccUTw-ROl653swisLFIC-50" target="ccUTw-ROl653swisLFIC-48">
          <mxGeometry width="50" height="50" relative="1" as="geometry">
            <mxPoint x="360" y="-290" as="sourcePoint" />
            <mxPoint x="410" y="-340" as="targetPoint" />
            <Array as="points">
              <mxPoint x="510" y="-327" />
              <mxPoint x="510" y="-370" />
              <mxPoint x="510" y="-425" />
            </Array>
          </mxGeometry>
        </mxCell>
        <mxCell id="ccUTw-ROl653swisLFIC-54" value="No" style="text;html=1;whiteSpace=wrap;strokeColor=none;fillColor=none;align=center;verticalAlign=middle;rounded=0;" vertex="1" parent="1">
          <mxGeometry x="460" y="-350" width="60" height="30" as="geometry" />
        </mxCell>
        <mxCell id="ccUTw-ROl653swisLFIC-58" value="" style="edgeStyle=orthogonalEdgeStyle;rounded=0;orthogonalLoop=1;jettySize=auto;html=1;" edge="1" parent="1" source="ccUTw-ROl653swisLFIC-55" target="ccUTw-ROl653swisLFIC-57">
          <mxGeometry relative="1" as="geometry" />
        </mxCell>
        <mxCell id="ccUTw-ROl653swisLFIC-55" value="Calculate&amp;nbsp;&lt;div&gt;Costs&lt;/div&gt;" style="rounded=0;whiteSpace=wrap;html=1;" vertex="1" parent="1">
          <mxGeometry x="370" y="-275" width="100" height="55" as="geometry" />
        </mxCell>
        <mxCell id="ccUTw-ROl653swisLFIC-60" value="" style="edgeStyle=orthogonalEdgeStyle;rounded=0;orthogonalLoop=1;jettySize=auto;html=1;" edge="1" parent="1" source="ccUTw-ROl653swisLFIC-57" target="ccUTw-ROl653swisLFIC-59">
          <mxGeometry relative="1" as="geometry" />
        </mxCell>
        <mxCell id="ccUTw-ROl653swisLFIC-57" value="Display Order&lt;div&gt;Summary&lt;/div&gt;" style="rounded=0;whiteSpace=wrap;html=1;" vertex="1" parent="1">
          <mxGeometry x="370" y="-190" width="100" height="60" as="geometry" />
        </mxCell>
        <mxCell id="ccUTw-ROl653swisLFIC-66" value="" style="edgeStyle=orthogonalEdgeStyle;rounded=0;orthogonalLoop=1;jettySize=auto;html=1;" edge="1" parent="1" source="ccUTw-ROl653swisLFIC-59" target="ccUTw-ROl653swisLFIC-61">
          <mxGeometry relative="1" as="geometry" />
        </mxCell>
        <mxCell id="ccUTw-ROl653swisLFIC-59" value="Prompt&amp;nbsp;&lt;div&gt;Confirmation&lt;/div&gt;" style="shape=parallelogram;perimeter=parallelogramPerimeter;whiteSpace=wrap;html=1;fixedSize=1;" vertex="1" parent="1">
          <mxGeometry x="360" y="-90" width="120" height="60" as="geometry" />
        </mxCell>
        <mxCell id="ccUTw-ROl653swisLFIC-68" value="" style="edgeStyle=orthogonalEdgeStyle;rounded=0;orthogonalLoop=1;jettySize=auto;html=1;" edge="1" parent="1" source="ccUTw-ROl653swisLFIC-61" target="ccUTw-ROl653swisLFIC-67">
          <mxGeometry relative="1" as="geometry" />
        </mxCell>
        <mxCell id="ccUTw-ROl653swisLFIC-61" value="Y/N" style="rhombus;whiteSpace=wrap;html=1;" vertex="1" parent="1">
          <mxGeometry x="360" width="120" height="80" as="geometry" />
        </mxCell>
        <mxCell id="ccUTw-ROl653swisLFIC-63" value="" style="endArrow=none;html=1;rounded=0;entryX=0;entryY=0.5;entryDx=0;entryDy=0;" edge="1" parent="1" target="ccUTw-ROl653swisLFIC-61">
          <mxGeometry width="50" height="50" relative="1" as="geometry">
            <mxPoint x="270" y="40" as="sourcePoint" />
            <mxPoint x="410" y="-90" as="targetPoint" />
          </mxGeometry>
        </mxCell>
        <mxCell id="ccUTw-ROl653swisLFIC-64" value="No" style="text;html=1;whiteSpace=wrap;strokeColor=none;fillColor=none;align=center;verticalAlign=middle;rounded=0;" vertex="1" parent="1">
          <mxGeometry x="295" y="30" width="60" height="10" as="geometry" />
        </mxCell>
        <mxCell id="ccUTw-ROl653swisLFIC-70" value="" style="edgeStyle=orthogonalEdgeStyle;rounded=0;orthogonalLoop=1;jettySize=auto;html=1;" edge="1" parent="1" source="ccUTw-ROl653swisLFIC-67" target="ccUTw-ROl653swisLFIC-69">
          <mxGeometry relative="1" as="geometry" />
        </mxCell>
        <mxCell id="ccUTw-ROl653swisLFIC-67" value="Generate&lt;div&gt;Order Number&lt;/div&gt;" style="rounded=0;whiteSpace=wrap;html=1;" vertex="1" parent="1">
          <mxGeometry x="360" y="110" width="120" height="60" as="geometry" />
        </mxCell>
        <mxCell id="ccUTw-ROl653swisLFIC-69" value="DAO writes to Storage" style="rounded=0;whiteSpace=wrap;html=1;" vertex="1" parent="1">
          <mxGeometry x="360" y="200" width="120" height="60" as="geometry" />
        </mxCell>
        <mxCell id="ccUTw-ROl653swisLFIC-71" value="" style="endArrow=none;html=1;rounded=0;entryX=0;entryY=0.5;entryDx=0;entryDy=0;" edge="1" parent="1" target="ccUTw-ROl653swisLFIC-69">
          <mxGeometry width="50" height="50" relative="1" as="geometry">
            <mxPoint x="79.04761904761905" y="40" as="sourcePoint" />
            <mxPoint x="450" y="130" as="targetPoint" />
            <Array as="points">
              <mxPoint x="80" y="230" />
            </Array>
          </mxGeometry>
        </mxCell>
        <mxCell id="ccUTw-ROl653swisLFIC-79" value="" style="edgeStyle=orthogonalEdgeStyle;rounded=0;orthogonalLoop=1;jettySize=auto;html=1;" edge="1" parent="1" source="ccUTw-ROl653swisLFIC-73" target="ccUTw-ROl653swisLFIC-76">
          <mxGeometry relative="1" as="geometry" />
        </mxCell>
        <mxCell id="ccUTw-ROl653swisLFIC-73" value="Prompt For Date&amp;nbsp;&lt;div&gt;and Order Number&lt;/div&gt;" style="shape=parallelogram;perimeter=parallelogramPerimeter;whiteSpace=wrap;html=1;fixedSize=1;" vertex="1" parent="1">
          <mxGeometry x="530" y="-460" width="135" height="70" as="geometry" />
        </mxCell>
        <mxCell id="ccUTw-ROl653swisLFIC-74" value="Prompt For Date" style="shape=parallelogram;perimeter=parallelogramPerimeter;whiteSpace=wrap;html=1;fixedSize=1;" vertex="1" parent="1">
          <mxGeometry x="170" y="-460" width="120" height="60" as="geometry" />
        </mxCell>
        <mxCell id="ccUTw-ROl653swisLFIC-77" style="edgeStyle=orthogonalEdgeStyle;rounded=0;orthogonalLoop=1;jettySize=auto;html=1;entryX=1;entryY=0.5;entryDx=0;entryDy=0;" edge="1" parent="1" source="ccUTw-ROl653swisLFIC-76" target="ccUTw-ROl653swisLFIC-73">
          <mxGeometry relative="1" as="geometry">
            <mxPoint x="720" y="-430" as="targetPoint" />
            <Array as="points">
              <mxPoint x="700" y="-320" />
              <mxPoint x="700" y="-425" />
            </Array>
          </mxGeometry>
        </mxCell>
        <mxCell id="ccUTw-ROl653swisLFIC-84" value="" style="edgeStyle=orthogonalEdgeStyle;rounded=0;orthogonalLoop=1;jettySize=auto;html=1;" edge="1" parent="1" source="ccUTw-ROl653swisLFIC-76" target="ccUTw-ROl653swisLFIC-82">
          <mxGeometry relative="1" as="geometry" />
        </mxCell>
        <mxCell id="ccUTw-ROl653swisLFIC-76" value="Valid Inputs" style="rhombus;whiteSpace=wrap;html=1;" vertex="1" parent="1">
          <mxGeometry x="537.5" y="-360" width="120" height="70" as="geometry" />
        </mxCell>
        <mxCell id="ccUTw-ROl653swisLFIC-78" value="No" style="text;html=1;whiteSpace=wrap;strokeColor=none;fillColor=none;align=center;verticalAlign=middle;rounded=0;" vertex="1" parent="1">
          <mxGeometry x="640" y="-350" width="60" height="30" as="geometry" />
        </mxCell>
        <mxCell id="ccUTw-ROl653swisLFIC-91" value="" style="edgeStyle=orthogonalEdgeStyle;rounded=0;orthogonalLoop=1;jettySize=auto;html=1;" edge="1" parent="1" source="ccUTw-ROl653swisLFIC-80" target="ccUTw-ROl653swisLFIC-90">
          <mxGeometry relative="1" as="geometry" />
        </mxCell>
        <mxCell id="ccUTw-ROl653swisLFIC-80" value="Show Next Editable Field" style="rounded=0;whiteSpace=wrap;html=1;" vertex="1" parent="1">
          <mxGeometry x="547.5" y="-80" width="100" height="60" as="geometry" />
        </mxCell>
        <mxCell id="ccUTw-ROl653swisLFIC-104" value="" style="edgeStyle=orthogonalEdgeStyle;rounded=0;orthogonalLoop=1;jettySize=auto;html=1;" edge="1" parent="1" source="ccUTw-ROl653swisLFIC-82" target="ccUTw-ROl653swisLFIC-101">
          <mxGeometry relative="1" as="geometry" />
        </mxCell>
        <mxCell id="ccUTw-ROl653swisLFIC-82" value="Dao Load&amp;nbsp;&lt;div&gt;order File&lt;/div&gt;" style="rounded=0;whiteSpace=wrap;html=1;" vertex="1" parent="1">
          <mxGeometry x="547.5" y="-260" width="100" height="60" as="geometry" />
        </mxCell>
        <mxCell id="ccUTw-ROl653swisLFIC-86" value="Prompt New Info" style="shape=parallelogram;perimeter=parallelogramPerimeter;whiteSpace=wrap;html=1;fixedSize=1;" vertex="1" parent="1">
          <mxGeometry x="537.5" y="10" width="120" height="60" as="geometry" />
        </mxCell>
        <mxCell id="ccUTw-ROl653swisLFIC-88" value="No" style="text;html=1;whiteSpace=wrap;strokeColor=none;fillColor=none;align=center;verticalAlign=middle;rounded=0;" vertex="1" parent="1">
          <mxGeometry x="110" y="-370" width="60" height="30" as="geometry" />
        </mxCell>
        <mxCell id="ccUTw-ROl653swisLFIC-93" style="edgeStyle=orthogonalEdgeStyle;rounded=0;orthogonalLoop=1;jettySize=auto;html=1;entryX=0.5;entryY=0;entryDx=0;entryDy=0;" edge="1" parent="1" target="ccUTw-ROl653swisLFIC-92">
          <mxGeometry relative="1" as="geometry">
            <mxPoint x="622.547619047619" y="154.97420634920627" as="sourcePoint" />
          </mxGeometry>
        </mxCell>
        <mxCell id="ccUTw-ROl653swisLFIC-95" style="edgeStyle=orthogonalEdgeStyle;rounded=0;orthogonalLoop=1;jettySize=auto;html=1;" edge="1" parent="1">
          <mxGeometry relative="1" as="geometry">
            <mxPoint x="622.547619047619" y="154.97420634920627" as="sourcePoint" />
            <mxPoint x="572.547619047619" y="200" as="targetPoint" />
          </mxGeometry>
        </mxCell>
        <mxCell id="ccUTw-ROl653swisLFIC-90" value="Input Blank?" style="rhombus;whiteSpace=wrap;html=1;" vertex="1" parent="1">
          <mxGeometry x="570" y="85" width="120" height="65" as="geometry" />
        </mxCell>
        <mxCell id="ccUTw-ROl653swisLFIC-99" value="" style="edgeStyle=orthogonalEdgeStyle;rounded=0;orthogonalLoop=1;jettySize=auto;html=1;" edge="1" parent="1" source="ccUTw-ROl653swisLFIC-92" target="ccUTw-ROl653swisLFIC-98">
          <mxGeometry relative="1" as="geometry" />
        </mxCell>
        <mxCell id="ccUTw-ROl653swisLFIC-106" style="edgeStyle=orthogonalEdgeStyle;rounded=0;orthogonalLoop=1;jettySize=auto;html=1;entryX=1;entryY=0.5;entryDx=0;entryDy=0;" edge="1" parent="1" source="ccUTw-ROl653swisLFIC-92" target="ccUTw-ROl653swisLFIC-86">
          <mxGeometry relative="1" as="geometry">
            <mxPoint x="760" y="70" as="targetPoint" />
            <Array as="points">
              <mxPoint x="740" y="232" />
              <mxPoint x="740" y="40" />
            </Array>
          </mxGeometry>
        </mxCell>
        <mxCell id="ccUTw-ROl653swisLFIC-92" value="Valid Input?" style="rhombus;whiteSpace=wrap;html=1;" vertex="1" parent="1">
          <mxGeometry x="632.5" y="200" width="120" height="65" as="geometry" />
        </mxCell>
        <mxCell id="ccUTw-ROl653swisLFIC-108" style="edgeStyle=orthogonalEdgeStyle;rounded=0;orthogonalLoop=1;jettySize=auto;html=1;entryX=1;entryY=0.5;entryDx=0;entryDy=0;" edge="1" parent="1" source="ccUTw-ROl653swisLFIC-94" target="ccUTw-ROl653swisLFIC-101">
          <mxGeometry relative="1" as="geometry">
            <mxPoint x="790" y="-150" as="targetPoint" />
            <Array as="points">
              <mxPoint x="540" y="380" />
              <mxPoint x="760" y="380" />
              <mxPoint x="760" y="-140" />
            </Array>
          </mxGeometry>
        </mxCell>
        <mxCell id="ccUTw-ROl653swisLFIC-94" value="Keep the Previous information" style="rounded=0;whiteSpace=wrap;html=1;" vertex="1" parent="1">
          <mxGeometry x="520" y="200" width="100" height="60" as="geometry" />
        </mxCell>
        <mxCell id="ccUTw-ROl653swisLFIC-96" value="Yes" style="text;html=1;whiteSpace=wrap;strokeColor=none;fillColor=none;align=center;verticalAlign=middle;rounded=0;" vertex="1" parent="1">
          <mxGeometry x="562.5" y="155" width="60" height="30" as="geometry" />
        </mxCell>
        <mxCell id="ccUTw-ROl653swisLFIC-109" style="edgeStyle=orthogonalEdgeStyle;rounded=0;orthogonalLoop=1;jettySize=auto;html=1;" edge="1" parent="1" source="ccUTw-ROl653swisLFIC-98">
          <mxGeometry relative="1" as="geometry">
            <mxPoint x="770" y="320" as="targetPoint" />
          </mxGeometry>
        </mxCell>
        <mxCell id="ccUTw-ROl653swisLFIC-98" value="Update Field to input" style="rounded=0;whiteSpace=wrap;html=1;" vertex="1" parent="1">
          <mxGeometry x="622.5" y="290" width="120" height="60" as="geometry" />
        </mxCell>
        <mxCell id="ccUTw-ROl653swisLFIC-100" value="no" style="text;html=1;whiteSpace=wrap;strokeColor=none;fillColor=none;align=center;verticalAlign=middle;rounded=0;" vertex="1" parent="1">
          <mxGeometry x="642.5" y="150" width="60" height="30" as="geometry" />
        </mxCell>
        <mxCell id="ccUTw-ROl653swisLFIC-103" style="edgeStyle=orthogonalEdgeStyle;rounded=0;orthogonalLoop=1;jettySize=auto;html=1;entryX=0.5;entryY=0;entryDx=0;entryDy=0;" edge="1" parent="1" source="ccUTw-ROl653swisLFIC-101" target="ccUTw-ROl653swisLFIC-80">
          <mxGeometry relative="1" as="geometry" />
        </mxCell>
        <mxCell id="ccUTw-ROl653swisLFIC-101" value="All Editable&lt;div&gt;&amp;nbsp;Fields Done&lt;/div&gt;" style="rhombus;whiteSpace=wrap;html=1;" vertex="1" parent="1">
          <mxGeometry x="535" y="-180" width="125" height="80" as="geometry" />
        </mxCell>
        <mxCell id="ccUTw-ROl653swisLFIC-105" value="No" style="text;html=1;whiteSpace=wrap;strokeColor=none;fillColor=none;align=center;verticalAlign=middle;rounded=0;" vertex="1" parent="1">
          <mxGeometry x="537.5" y="-110" width="60" height="30" as="geometry" />
        </mxCell>
        <mxCell id="ccUTw-ROl653swisLFIC-107" value="Yes" style="text;html=1;whiteSpace=wrap;strokeColor=none;fillColor=none;align=center;verticalAlign=middle;rounded=0;" vertex="1" parent="1">
          <mxGeometry x="702.5" y="125" width="60" height="30" as="geometry" />
        </mxCell>
        <mxCell id="ccUTw-ROl653swisLFIC-110" value="" style="endArrow=classic;html=1;rounded=0;exitX=0;exitY=0.5;exitDx=0;exitDy=0;" edge="1" parent="1" source="ccUTw-ROl653swisLFIC-101">
          <mxGeometry width="50" height="50" relative="1" as="geometry">
            <mxPoint x="650" y="110" as="sourcePoint" />
            <mxPoint x="510" y="410" as="targetPoint" />
            <Array as="points">
              <mxPoint x="510" y="-140" />
              <mxPoint x="510" y="310" />
            </Array>
          </mxGeometry>
        </mxCell>
        <mxCell id="ccUTw-ROl653swisLFIC-111" value="" style="endArrow=none;html=1;rounded=0;entryX=0.5;entryY=1;entryDx=0;entryDy=0;" edge="1" parent="1" target="ccUTw-ROl653swisLFIC-90">
          <mxGeometry width="50" height="50" relative="1" as="geometry">
            <mxPoint x="630" y="150" as="sourcePoint" />
            <mxPoint x="700" y="290" as="targetPoint" />
          </mxGeometry>
        </mxCell>
        <mxCell id="ccUTw-ROl653swisLFIC-112" value="Yes" style="text;html=1;whiteSpace=wrap;strokeColor=none;fillColor=none;align=center;verticalAlign=middle;rounded=0;" vertex="1" parent="1">
          <mxGeometry x="490" y="-170" width="60" height="30" as="geometry" />
        </mxCell>
        <mxCell id="ccUTw-ROl653swisLFIC-135" value="" style="edgeStyle=orthogonalEdgeStyle;rounded=0;orthogonalLoop=1;jettySize=auto;html=1;" edge="1" parent="1" source="ccUTw-ROl653swisLFIC-114" target="ccUTw-ROl653swisLFIC-118">
          <mxGeometry relative="1" as="geometry" />
        </mxCell>
        <mxCell id="ccUTw-ROl653swisLFIC-114" value="Update Calculations" style="rounded=0;whiteSpace=wrap;html=1;" vertex="1" parent="1">
          <mxGeometry x="450" y="414" width="120" height="60" as="geometry" />
        </mxCell>
        <mxCell id="ccUTw-ROl653swisLFIC-129" value="" style="edgeStyle=orthogonalEdgeStyle;rounded=0;orthogonalLoop=1;jettySize=auto;html=1;" edge="1" parent="1" source="ccUTw-ROl653swisLFIC-116" target="ccUTw-ROl653swisLFIC-118">
          <mxGeometry relative="1" as="geometry" />
        </mxCell>
        <mxCell id="ccUTw-ROl653swisLFIC-116" value="Display Order&lt;div&gt;Summary&lt;/div&gt;" style="rounded=0;whiteSpace=wrap;html=1;" vertex="1" parent="1">
          <mxGeometry x="460" y="510" width="100" height="60" as="geometry" />
        </mxCell>
        <mxCell id="ccUTw-ROl653swisLFIC-117" value="" style="edgeStyle=orthogonalEdgeStyle;rounded=0;orthogonalLoop=1;jettySize=auto;html=1;" edge="1" parent="1" source="ccUTw-ROl653swisLFIC-118" target="ccUTw-ROl653swisLFIC-120">
          <mxGeometry relative="1" as="geometry" />
        </mxCell>
        <mxCell id="ccUTw-ROl653swisLFIC-118" value="Prompt&amp;nbsp;&lt;div&gt;Confirmation&lt;/div&gt;" style="shape=parallelogram;perimeter=parallelogramPerimeter;whiteSpace=wrap;html=1;fixedSize=1;" vertex="1" parent="1">
          <mxGeometry x="450" y="590" width="120" height="60" as="geometry" />
        </mxCell>
        <mxCell id="ccUTw-ROl653swisLFIC-119" value="" style="edgeStyle=orthogonalEdgeStyle;rounded=0;orthogonalLoop=1;jettySize=auto;html=1;" edge="1" parent="1" source="ccUTw-ROl653swisLFIC-120">
          <mxGeometry relative="1" as="geometry">
            <mxPoint x="510.04761904761904" y="790" as="targetPoint" />
          </mxGeometry>
        </mxCell>
        <mxCell id="ccUTw-ROl653swisLFIC-120" value="Y/N" style="rhombus;whiteSpace=wrap;html=1;" vertex="1" parent="1">
          <mxGeometry x="450" y="680" width="120" height="80" as="geometry" />
        </mxCell>
        <mxCell id="ccUTw-ROl653swisLFIC-123" value="DAO writes to Storage" style="rounded=0;whiteSpace=wrap;html=1;" vertex="1" parent="1">
          <mxGeometry x="440" y="790" width="120" height="60" as="geometry" />
        </mxCell>
        <mxCell id="ccUTw-ROl653swisLFIC-139" value="Yes" style="text;html=1;whiteSpace=wrap;strokeColor=none;fillColor=none;align=center;verticalAlign=middle;rounded=0;" vertex="1" parent="1">
          <mxGeometry x="523" y="760" width="60" height="30" as="geometry" />
        </mxCell>
        <mxCell id="ccUTw-ROl653swisLFIC-140" value="" style="endArrow=none;html=1;rounded=0;entryX=0;entryY=0.5;entryDx=0;entryDy=0;" edge="1" parent="1" target="ccUTw-ROl653swisLFIC-120">
          <mxGeometry width="50" height="50" relative="1" as="geometry">
            <mxPoint x="80" y="720" as="sourcePoint" />
            <mxPoint x="440" y="710" as="targetPoint" />
          </mxGeometry>
        </mxCell>
        <mxCell id="ccUTw-ROl653swisLFIC-141" value="No" style="text;html=1;whiteSpace=wrap;strokeColor=none;fillColor=none;align=center;verticalAlign=middle;rounded=0;" vertex="1" parent="1">
          <mxGeometry x="400" y="690" width="60" height="30" as="geometry" />
        </mxCell>
        <mxCell id="ccUTw-ROl653swisLFIC-142" value="" style="endArrow=none;html=1;rounded=0;" edge="1" parent="1">
          <mxGeometry width="50" height="50" relative="1" as="geometry">
            <mxPoint x="80" y="830" as="sourcePoint" />
            <mxPoint x="80" y="230" as="targetPoint" />
            <Array as="points">
              <mxPoint x="440" y="830" />
              <mxPoint x="80" y="830" />
            </Array>
          </mxGeometry>
        </mxCell>
        <mxCell id="ccUTw-ROl653swisLFIC-143" value="" style="edgeStyle=orthogonalEdgeStyle;rounded=0;orthogonalLoop=1;jettySize=auto;html=1;" edge="1" parent="1" source="ccUTw-ROl653swisLFIC-144" target="ccUTw-ROl653swisLFIC-146">
          <mxGeometry relative="1" as="geometry" />
        </mxCell>
        <mxCell id="ccUTw-ROl653swisLFIC-144" value="Prompt For Date&amp;nbsp;&lt;div&gt;and Order Number&lt;/div&gt;" style="shape=parallelogram;perimeter=parallelogramPerimeter;whiteSpace=wrap;html=1;fixedSize=1;" vertex="1" parent="1">
          <mxGeometry x="740" y="-460" width="135" height="70" as="geometry" />
        </mxCell>
        <mxCell id="ccUTw-ROl653swisLFIC-145" style="edgeStyle=orthogonalEdgeStyle;rounded=0;orthogonalLoop=1;jettySize=auto;html=1;entryX=1;entryY=0.5;entryDx=0;entryDy=0;" edge="1" parent="1" source="ccUTw-ROl653swisLFIC-146" target="ccUTw-ROl653swisLFIC-144">
          <mxGeometry relative="1" as="geometry">
            <mxPoint x="930" y="-430" as="targetPoint" />
            <Array as="points">
              <mxPoint x="910" y="-320" />
              <mxPoint x="910" y="-425" />
            </Array>
          </mxGeometry>
        </mxCell>
        <mxCell id="ccUTw-ROl653swisLFIC-156" value="" style="edgeStyle=orthogonalEdgeStyle;rounded=0;orthogonalLoop=1;jettySize=auto;html=1;" edge="1" parent="1" source="ccUTw-ROl653swisLFIC-146" target="ccUTw-ROl653swisLFIC-155">
          <mxGeometry relative="1" as="geometry" />
        </mxCell>
        <mxCell id="ccUTw-ROl653swisLFIC-146" value="Valid Inputs" style="rhombus;whiteSpace=wrap;html=1;" vertex="1" parent="1">
          <mxGeometry x="747.5" y="-360" width="120" height="70" as="geometry" />
        </mxCell>
        <mxCell id="ccUTw-ROl653swisLFIC-147" value="No" style="text;html=1;whiteSpace=wrap;strokeColor=none;fillColor=none;align=center;verticalAlign=middle;rounded=0;" vertex="1" parent="1">
          <mxGeometry x="850" y="-350" width="60" height="30" as="geometry" />
        </mxCell>
        <mxCell id="ccUTw-ROl653swisLFIC-158" value="" style="edgeStyle=orthogonalEdgeStyle;rounded=0;orthogonalLoop=1;jettySize=auto;html=1;" edge="1" parent="1" source="ccUTw-ROl653swisLFIC-155" target="ccUTw-ROl653swisLFIC-157">
          <mxGeometry relative="1" as="geometry" />
        </mxCell>
        <mxCell id="ccUTw-ROl653swisLFIC-155" value="Display Order&lt;div&gt;Summary&lt;/div&gt;" style="rounded=0;whiteSpace=wrap;html=1;" vertex="1" parent="1">
          <mxGeometry x="757.5" y="-250" width="100" height="60" as="geometry" />
        </mxCell>
        <mxCell id="ccUTw-ROl653swisLFIC-160" value="" style="edgeStyle=orthogonalEdgeStyle;rounded=0;orthogonalLoop=1;jettySize=auto;html=1;" edge="1" parent="1" source="ccUTw-ROl653swisLFIC-157" target="ccUTw-ROl653swisLFIC-159">
          <mxGeometry relative="1" as="geometry" />
        </mxCell>
        <mxCell id="ccUTw-ROl653swisLFIC-157" value="Prompt Deletion&amp;nbsp;&lt;div&gt;Confirmation&lt;/div&gt;" style="shape=parallelogram;perimeter=parallelogramPerimeter;whiteSpace=wrap;html=1;fixedSize=1;" vertex="1" parent="1">
          <mxGeometry x="780" y="-150" width="120" height="60" as="geometry" />
        </mxCell>
        <mxCell id="ccUTw-ROl653swisLFIC-163" value="" style="edgeStyle=orthogonalEdgeStyle;rounded=0;orthogonalLoop=1;jettySize=auto;html=1;" edge="1" parent="1" source="ccUTw-ROl653swisLFIC-159" target="ccUTw-ROl653swisLFIC-161">
          <mxGeometry relative="1" as="geometry" />
        </mxCell>
        <mxCell id="ccUTw-ROl653swisLFIC-165" style="edgeStyle=orthogonalEdgeStyle;rounded=0;orthogonalLoop=1;jettySize=auto;html=1;entryX=1;entryY=0.5;entryDx=0;entryDy=0;" edge="1" parent="1" source="ccUTw-ROl653swisLFIC-159" target="ccUTw-ROl653swisLFIC-157">
          <mxGeometry relative="1" as="geometry">
            <mxPoint x="940" y="-130" as="targetPoint" />
            <Array as="points">
              <mxPoint x="920" y="-20" />
              <mxPoint x="920" y="-120" />
            </Array>
          </mxGeometry>
        </mxCell>
        <mxCell id="ccUTw-ROl653swisLFIC-159" value="Y/N" style="rhombus;whiteSpace=wrap;html=1;" vertex="1" parent="1">
          <mxGeometry x="785" y="-60" width="110" height="80" as="geometry" />
        </mxCell>
        <mxCell id="ccUTw-ROl653swisLFIC-161" value="Delete Order" style="rounded=0;whiteSpace=wrap;html=1;" vertex="1" parent="1">
          <mxGeometry x="795" y="55" width="90" height="45" as="geometry" />
        </mxCell>
        <mxCell id="ccUTw-ROl653swisLFIC-162" value="Yes" style="text;html=1;whiteSpace=wrap;strokeColor=none;fillColor=none;align=center;verticalAlign=middle;rounded=0;" vertex="1" parent="1">
          <mxGeometry x="420" y="70" width="60" height="30" as="geometry" />
        </mxCell>
        <mxCell id="ccUTw-ROl653swisLFIC-164" value="Yes" style="text;html=1;whiteSpace=wrap;strokeColor=none;fillColor=none;align=center;verticalAlign=middle;rounded=0;" vertex="1" parent="1">
          <mxGeometry x="830" y="25" width="60" height="30" as="geometry" />
        </mxCell>
        <mxCell id="ccUTw-ROl653swisLFIC-166" value="Invalid Input" style="text;html=1;whiteSpace=wrap;strokeColor=none;fillColor=none;align=center;verticalAlign=middle;rounded=0;" vertex="1" parent="1">
          <mxGeometry x="858.5" y="-80" width="60" height="30" as="geometry" />
        </mxCell>
        <mxCell id="ccUTw-ROl653swisLFIC-167" value="" style="endArrow=classic;html=1;rounded=0;exitX=1;exitY=1;exitDx=0;exitDy=0;entryX=1;entryY=0.5;entryDx=0;entryDy=0;" edge="1" parent="1" source="ccUTw-ROl653swisLFIC-159" target="ccUTw-ROl653swisLFIC-9">
          <mxGeometry width="50" height="50" relative="1" as="geometry">
            <mxPoint x="670" y="200" as="sourcePoint" />
            <mxPoint x="940" y="-710" as="targetPoint" />
            <Array as="points">
              <mxPoint x="930" />
              <mxPoint x="930" y="-640" />
            </Array>
          </mxGeometry>
        </mxCell>
        <mxCell id="ccUTw-ROl653swisLFIC-168" value="No" style="text;html=1;whiteSpace=wrap;strokeColor=none;fillColor=none;align=center;verticalAlign=middle;rounded=0;" vertex="1" parent="1">
          <mxGeometry x="875" width="60" height="30" as="geometry" />
        </mxCell>
        <mxCell id="ccUTw-ROl653swisLFIC-173" value="" style="endArrow=none;html=1;rounded=0;entryX=0.924;entryY=0.005;entryDx=0;entryDy=0;exitX=1;exitY=0.5;exitDx=0;exitDy=0;entryPerimeter=0;" edge="1" parent="1" source="ccUTw-ROl653swisLFIC-161" target="ccUTw-ROl653swisLFIC-168">
          <mxGeometry width="50" height="50" relative="1" as="geometry">
            <mxPoint x="670" y="-50" as="sourcePoint" />
            <mxPoint x="720" y="-100" as="targetPoint" />
            <Array as="points">
              <mxPoint x="930" y="78" />
            </Array>
          </mxGeometry>
        </mxCell>
        <mxCell id="ccUTw-ROl653swisLFIC-174" value="" style="endArrow=classic;html=1;rounded=0;exitX=0.5;exitY=1;exitDx=0;exitDy=0;" edge="1" parent="1" source="ccUTw-ROl653swisLFIC-3">
          <mxGeometry width="50" height="50" relative="1" as="geometry">
            <mxPoint x="990" y="-430" as="sourcePoint" />
            <mxPoint x="995" y="-460" as="targetPoint" />
          </mxGeometry>
        </mxCell>
        <mxCell id="ccUTw-ROl653swisLFIC-179" value="" style="edgeStyle=orthogonalEdgeStyle;rounded=0;orthogonalLoop=1;jettySize=auto;html=1;" edge="1" parent="1" source="ccUTw-ROl653swisLFIC-175" target="ccUTw-ROl653swisLFIC-178">
          <mxGeometry relative="1" as="geometry" />
        </mxCell>
        <mxCell id="ccUTw-ROl653swisLFIC-175" value="Process Data" style="rounded=0;whiteSpace=wrap;html=1;" vertex="1" parent="1">
          <mxGeometry x="935" y="-460" width="120" height="60" as="geometry" />
        </mxCell>
        <mxCell id="ccUTw-ROl653swisLFIC-181" value="" style="edgeStyle=orthogonalEdgeStyle;rounded=0;orthogonalLoop=1;jettySize=auto;html=1;" edge="1" parent="1" source="ccUTw-ROl653swisLFIC-178" target="ccUTw-ROl653swisLFIC-180">
          <mxGeometry relative="1" as="geometry" />
        </mxCell>
        <mxCell id="ccUTw-ROl653swisLFIC-178" value="Add Date Column" style="rounded=0;whiteSpace=wrap;html=1;" vertex="1" parent="1">
          <mxGeometry x="935" y="-370" width="120" height="60" as="geometry" />
        </mxCell>
        <mxCell id="ccUTw-ROl653swisLFIC-180" value="Overwrite Data Export File" style="rounded=0;whiteSpace=wrap;html=1;" vertex="1" parent="1">
          <mxGeometry x="935" y="-280" width="120" height="60" as="geometry" />
        </mxCell>
        <mxCell id="ccUTw-ROl653swisLFIC-182" value="" style="endArrow=none;html=1;rounded=0;entryX=0.5;entryY=1;entryDx=0;entryDy=0;" edge="1" parent="1" target="ccUTw-ROl653swisLFIC-180">
          <mxGeometry width="50" height="50" relative="1" as="geometry">
            <mxPoint x="930" y="-170" as="sourcePoint" />
            <mxPoint x="860" y="-40" as="targetPoint" />
            <Array as="points">
              <mxPoint x="995" y="-170" />
            </Array>
          </mxGeometry>
        </mxCell>
        <mxCell id="ccUTw-ROl653swisLFIC-186" value="" style="edgeStyle=orthogonalEdgeStyle;rounded=0;orthogonalLoop=1;jettySize=auto;html=1;" edge="1" parent="1" source="ccUTw-ROl653swisLFIC-183" target="ccUTw-ROl653swisLFIC-185">
          <mxGeometry relative="1" as="geometry" />
        </mxCell>
        <mxCell id="ccUTw-ROl653swisLFIC-183" value="Display Goodbye" style="rounded=0;whiteSpace=wrap;html=1;" vertex="1" parent="1">
          <mxGeometry x="1070" y="-460" width="90" height="60" as="geometry" />
        </mxCell>
        <mxCell id="ccUTw-ROl653swisLFIC-185" value="End" style="ellipse;whiteSpace=wrap;html=1;" vertex="1" parent="1">
          <mxGeometry x="1070" y="-370" width="90" height="70" as="geometry" />
        </mxCell>
      </root>
    </mxGraphModel>
  </diagram>
</mxfile>
